<mxfile host="app.diagrams.net" modified="2023-02-26T15:31:00.602Z" agent="5.0 (X11)" etag="jIJ7yK3BU9jPFYTFtpuN" version="20.8.23" type="github">
  <diagram name="Page-1" id="Q7PegJgBn_QWuRy9i7ks">
    <mxGraphModel dx="1434" dy="760" grid="1" gridSize="10" guides="1" tooltips="1" connect="1" arrows="1" fold="1" page="1" pageScale="1" pageWidth="850" pageHeight="1100" math="0" shadow="0">
      <root>
        <mxCell id="0" />
        <mxCell id="1" parent="0" />
        <mxCell id="GcFr28EqOdRQheg48Vwl-1" value="" style="image;html=1;image=img/lib/clip_art/computers/Server_128x128.png" vertex="1" parent="1">
          <mxGeometry x="360" y="360" width="80" height="80" as="geometry" />
        </mxCell>
        <mxCell id="GcFr28EqOdRQheg48Vwl-2" value="" style="sketch=0;aspect=fixed;pointerEvents=1;shadow=0;dashed=0;html=1;strokeColor=none;labelPosition=center;verticalLabelPosition=bottom;verticalAlign=top;align=center;fillColor=#00188D;shape=mxgraph.mscae.enterprise.web_server" vertex="1" parent="1">
          <mxGeometry x="170" y="380" width="38" height="50" as="geometry" />
        </mxCell>
        <mxCell id="GcFr28EqOdRQheg48Vwl-3" value="" style="sketch=0;aspect=fixed;pointerEvents=1;shadow=0;dashed=0;html=1;strokeColor=none;labelPosition=center;verticalLabelPosition=bottom;verticalAlign=top;align=center;fillColor=#00188D;shape=mxgraph.mscae.enterprise.application_server" vertex="1" parent="1">
          <mxGeometry x="170" y="140" width="43" height="50" as="geometry" />
        </mxCell>
        <mxCell id="GcFr28EqOdRQheg48Vwl-4" value="" style="verticalLabelPosition=bottom;html=1;verticalAlign=top;align=center;strokeColor=none;fillColor=#00BEF2;shape=mxgraph.azure.code_file;pointerEvents=1;" vertex="1" parent="1">
          <mxGeometry x="20" y="110" width="47.5" height="50" as="geometry" />
        </mxCell>
        <mxCell id="GcFr28EqOdRQheg48Vwl-5" value="" style="verticalLabelPosition=bottom;html=1;verticalAlign=top;align=center;strokeColor=none;fillColor=#00BEF2;shape=mxgraph.azure.mysql_database;" vertex="1" parent="1">
          <mxGeometry x="160" y="560" width="37.5" height="50" as="geometry" />
        </mxCell>
        <mxCell id="GcFr28EqOdRQheg48Vwl-11" value="" style="shape=flexArrow;endArrow=classic;startArrow=classic;html=1;rounded=0;exitX=0.64;exitY=0.49;exitDx=0;exitDy=0;exitPerimeter=0;" edge="1" parent="1" source="GcFr28EqOdRQheg48Vwl-2">
          <mxGeometry width="100" height="100" relative="1" as="geometry">
            <mxPoint x="230" y="380" as="sourcePoint" />
            <mxPoint x="360" y="400" as="targetPoint" />
          </mxGeometry>
        </mxCell>
        <mxCell id="GcFr28EqOdRQheg48Vwl-12" value="" style="shape=flexArrow;endArrow=classic;startArrow=classic;html=1;rounded=0;exitX=0.263;exitY=0;exitDx=0;exitDy=0;exitPerimeter=0;" edge="1" parent="1" source="GcFr28EqOdRQheg48Vwl-2">
          <mxGeometry width="100" height="100" relative="1" as="geometry">
            <mxPoint x="180" y="340" as="sourcePoint" />
            <mxPoint x="180" y="190" as="targetPoint" />
          </mxGeometry>
        </mxCell>
        <mxCell id="GcFr28EqOdRQheg48Vwl-13" value="" style="shape=flexArrow;endArrow=classic;startArrow=classic;html=1;rounded=0;exitX=0.263;exitY=1.06;exitDx=0;exitDy=0;exitPerimeter=0;" edge="1" parent="1" source="GcFr28EqOdRQheg48Vwl-2">
          <mxGeometry width="100" height="100" relative="1" as="geometry">
            <mxPoint x="180" y="450" as="sourcePoint" />
            <mxPoint x="180" y="560" as="targetPoint" />
          </mxGeometry>
        </mxCell>
        <mxCell id="GcFr28EqOdRQheg48Vwl-14" value="" style="shape=flexArrow;endArrow=classic;startArrow=classic;html=1;rounded=0;exitX=0.02;exitY=0.01;exitDx=0;exitDy=0;exitPerimeter=0;" edge="1" parent="1" source="GcFr28EqOdRQheg48Vwl-3">
          <mxGeometry width="100" height="100" relative="1" as="geometry">
            <mxPoint x="400" y="120" as="sourcePoint" />
            <mxPoint x="70" y="140" as="targetPoint" />
          </mxGeometry>
        </mxCell>
        <mxCell id="GcFr28EqOdRQheg48Vwl-19" value="" style="aspect=fixed;perimeter=ellipsePerimeter;html=1;align=center;shadow=0;dashed=0;spacingTop=3;image;image=img/lib/active_directory/laptop_client.svg;" vertex="1" parent="1">
          <mxGeometry x="790" y="360" width="45" height="50" as="geometry" />
        </mxCell>
        <mxCell id="GcFr28EqOdRQheg48Vwl-24" value="" style="outlineConnect=0;dashed=0;verticalLabelPosition=bottom;verticalAlign=top;align=center;html=1;shape=mxgraph.aws3.internet;fillColor=#D2D3D3;gradientColor=none;" vertex="1" parent="1">
          <mxGeometry x="550.25" y="327.63" width="129.5" height="154.75" as="geometry" />
        </mxCell>
        <mxCell id="GcFr28EqOdRQheg48Vwl-20" value="" style="shape=flexArrow;endArrow=classic;startArrow=classic;html=1;rounded=0;exitX=1;exitY=0.5;exitDx=0;exitDy=0;" edge="1" parent="1" source="GcFr28EqOdRQheg48Vwl-1">
          <mxGeometry width="100" height="100" relative="1" as="geometry">
            <mxPoint x="450" y="385" as="sourcePoint" />
            <mxPoint x="550" y="400" as="targetPoint" />
          </mxGeometry>
        </mxCell>
        <mxCell id="GcFr28EqOdRQheg48Vwl-22" value="" style="shape=flexArrow;endArrow=classic;startArrow=classic;html=1;rounded=0;" edge="1" parent="1" target="GcFr28EqOdRQheg48Vwl-1">
          <mxGeometry width="100" height="100" relative="1" as="geometry">
            <mxPoint x="208" y="560" as="sourcePoint" />
            <mxPoint x="308" y="460" as="targetPoint" />
          </mxGeometry>
        </mxCell>
        <mxCell id="GcFr28EqOdRQheg48Vwl-23" value="" style="shape=flexArrow;endArrow=classic;startArrow=classic;html=1;rounded=0;exitX=0;exitY=0.15;exitDx=0;exitDy=0;exitPerimeter=0;" edge="1" parent="1" source="GcFr28EqOdRQheg48Vwl-1">
          <mxGeometry width="100" height="100" relative="1" as="geometry">
            <mxPoint x="520" y="380" as="sourcePoint" />
            <mxPoint x="220" y="200" as="targetPoint" />
          </mxGeometry>
        </mxCell>
        <mxCell id="GcFr28EqOdRQheg48Vwl-37" value="" style="fillColor=#28A8E0;verticalLabelPosition=bottom;sketch=0;html=1;strokeColor=#ffffff;verticalAlign=top;align=center;points=[[0.145,0.145,0],[0.5,0,0],[0.855,0.145,0],[1,0.5,0],[0.855,0.855,0],[0.5,1,0],[0.145,0.855,0],[0,0.5,0]];pointerEvents=1;shape=mxgraph.cisco_safe.compositeIcon;bgIcon=ellipse;resIcon=mxgraph.cisco_safe.capability.dns;fontSize=13;" vertex="1" parent="1">
          <mxGeometry x="550.25" y="150" width="110" height="87.62" as="geometry" />
        </mxCell>
        <mxCell id="GcFr28EqOdRQheg48Vwl-27" value="Internet" style="text;html=1;strokeColor=none;fillColor=none;align=center;verticalAlign=middle;whiteSpace=wrap;rounded=0;" vertex="1" parent="1">
          <mxGeometry x="530" y="355.63" width="170" height="60" as="geometry" />
        </mxCell>
        <mxCell id="GcFr28EqOdRQheg48Vwl-28" value="Server" style="text;html=1;strokeColor=none;fillColor=none;align=center;verticalAlign=middle;whiteSpace=wrap;rounded=0;fontSize=13;" vertex="1" parent="1">
          <mxGeometry x="370" y="430" width="60" height="30" as="geometry" />
        </mxCell>
        <mxCell id="GcFr28EqOdRQheg48Vwl-29" value="&lt;div&gt;MySQL&lt;/div&gt;&lt;div&gt;Database&lt;/div&gt;" style="text;html=1;strokeColor=none;fillColor=none;align=center;verticalAlign=middle;whiteSpace=wrap;rounded=0;fontSize=13;" vertex="1" parent="1">
          <mxGeometry x="90" y="575" width="60" height="30" as="geometry" />
        </mxCell>
        <mxCell id="GcFr28EqOdRQheg48Vwl-30" value="Webserver" style="text;html=1;strokeColor=none;fillColor=none;align=center;verticalAlign=middle;whiteSpace=wrap;rounded=0;fontSize=13;" vertex="1" parent="1">
          <mxGeometry x="90" y="380" width="60" height="30" as="geometry" />
        </mxCell>
        <mxCell id="GcFr28EqOdRQheg48Vwl-31" value="Application Server" style="text;html=1;strokeColor=none;fillColor=none;align=center;verticalAlign=middle;whiteSpace=wrap;rounded=0;fontSize=13;" vertex="1" parent="1">
          <mxGeometry x="213" y="150" width="60" height="30" as="geometry" />
        </mxCell>
        <mxCell id="GcFr28EqOdRQheg48Vwl-33" value="&lt;div&gt;Application &lt;br&gt;&lt;/div&gt;&lt;div&gt;File(Codebase)&lt;br&gt;&lt;/div&gt;" style="text;html=1;strokeColor=none;fillColor=none;align=center;verticalAlign=middle;whiteSpace=wrap;rounded=0;fontSize=13;" vertex="1" parent="1">
          <mxGeometry x="20" y="70" width="60" height="30" as="geometry" />
        </mxCell>
        <mxCell id="GcFr28EqOdRQheg48Vwl-39" value="" style="shape=flexArrow;endArrow=classic;startArrow=classic;html=1;rounded=0;fontSize=13;" edge="1" parent="1" target="GcFr28EqOdRQheg48Vwl-37">
          <mxGeometry width="100" height="100" relative="1" as="geometry">
            <mxPoint x="605" y="320" as="sourcePoint" />
            <mxPoint x="570" y="280" as="targetPoint" />
          </mxGeometry>
        </mxCell>
        <mxCell id="GcFr28EqOdRQheg48Vwl-40" value="" style="shape=flexArrow;endArrow=classic;startArrow=classic;html=1;rounded=0;exitX=1;exitY=0.5;exitDx=0;exitDy=0;" edge="1" parent="1">
          <mxGeometry width="100" height="100" relative="1" as="geometry">
            <mxPoint x="679.75" y="399.5" as="sourcePoint" />
            <mxPoint x="789.75" y="399.5" as="targetPoint" />
          </mxGeometry>
        </mxCell>
        <mxCell id="GcFr28EqOdRQheg48Vwl-41" value="" style="endArrow=classic;html=1;rounded=0;fontSize=13;" edge="1" parent="1">
          <mxGeometry width="50" height="50" relative="1" as="geometry">
            <mxPoint x="450" y="342" as="sourcePoint" />
            <mxPoint x="800" y="342" as="targetPoint" />
          </mxGeometry>
        </mxCell>
        <mxCell id="GcFr28EqOdRQheg48Vwl-43" value="" style="endArrow=classic;html=1;rounded=0;fontSize=13;entryX=1;entryY=0.25;entryDx=0;entryDy=0;exitX=0.222;exitY=0.4;exitDx=0;exitDy=0;exitPerimeter=0;" edge="1" parent="1">
          <mxGeometry width="50" height="50" relative="1" as="geometry">
            <mxPoint x="799.9899999999998" y="492" as="sourcePoint" />
            <mxPoint x="440" y="492" as="targetPoint" />
          </mxGeometry>
        </mxCell>
        <mxCell id="GcFr28EqOdRQheg48Vwl-44" value="HTTP Response" style="text;html=1;strokeColor=none;fillColor=none;align=center;verticalAlign=middle;whiteSpace=wrap;rounded=0;fontSize=13;" vertex="1" parent="1">
          <mxGeometry x="630" y="320" width="180" height="30" as="geometry" />
        </mxCell>
        <mxCell id="GcFr28EqOdRQheg48Vwl-45" value="HTTP Request" style="text;html=1;strokeColor=none;fillColor=none;align=center;verticalAlign=middle;whiteSpace=wrap;rounded=0;fontSize=13;" vertex="1" parent="1">
          <mxGeometry x="530" y="490" width="180" height="30" as="geometry" />
        </mxCell>
        <mxCell id="GcFr28EqOdRQheg48Vwl-46" value="&lt;code&gt;www.foobar.com&lt;/code&gt;" style="text;html=1;strokeColor=none;fillColor=none;align=center;verticalAlign=middle;whiteSpace=wrap;rounded=0;fontSize=13;" vertex="1" parent="1">
          <mxGeometry x="700" y="360" width="60" height="30" as="geometry" />
        </mxCell>
        <mxCell id="GcFr28EqOdRQheg48Vwl-47" value="8.8.8.8" style="text;html=1;strokeColor=none;fillColor=none;align=center;verticalAlign=middle;whiteSpace=wrap;rounded=0;fontSize=13;" vertex="1" parent="1">
          <mxGeometry x="460" y="370.63" width="60" height="30" as="geometry" />
        </mxCell>
      </root>
    </mxGraphModel>
  </diagram>
</mxfile>
